<svg xmlns="http://www.w3.org/2000/svg" xmlns:xlink="http://www.w3.org/1999/xlink" xml:space="preserve" width="6.82666in" height="6.82666in" style="shape-rendering:geometricPrecision; text-rendering:geometricPrecision; image-rendering:optimizeQuality; fill-rule:evenodd; clip-rule:evenodd" viewBox="0 0 6.82666 6.82666">
 <defs fill="#a9a9a9">
  <style type="text/css">
   <![CDATA[
    .fil1 {fill:none}
    .fil0 {fill:#a9a9a9;fill-rule:nonzero}
   ]]>
  </style>
 </defs>
 <g id="Layer_x0020_1">
  <metadata id="CorelCorpID_0Corel-Layer" fill="#a9a9a9"/>
  <g id="_558167744">
   <path id="_558168296" class="fil0" d="M1.03009 1.17576l0.548594 0 0.106669 0 0 0.106669 0 0.117638 0.459571 0 0 -0.117638 0 -0.106669 0.106669 0 2.32348 0 0.106669 0 0 0.106669 0 0.117638 0.459571 0 0 -0.117638 0 -0.106669 0.106669 0 0.548591 0c0.0487165,0 0.092937,0.0198583 0.124921,0.0518425 0.0319843,0.0319843 0.0518425,0.0762126 0.0518425,0.124921l0 4.34592c0,0.0487205 -0.0198661,0.0929331 -0.0518465,0.124913l-0.000208661 -0.000208661c-0.0322165,0.032122 -0.076374,0.0520551 -0.124709,0.0520551l-4.76648 0c-0.0487087,0 -0.092937,-0.0198583 -0.124921,-0.0518425 -0.0319843,-0.0319843 -0.0518425,-0.0762008 -0.0518425,-0.124917l0 -4.34592c0,-0.0482402 0.0198504,-0.0923071 0.0518465,-0.1245l-3.93701e-006 -3.93701e-006 0.000208661 -0.000208661 0.000208661 -0.000208661 3.93701e-006 3.93701e-006c0.0321929,-0.0319961 0.0762598,-0.0518465 0.1245,-0.0518465zm0.441925 0.213339l-0.40535 0 0 4.27276 4.69333 0 0 -4.27276 -0.405346 0 0 0.0650709c0,0.0438976 -0.0178858,0.0837362 -0.0466929,0.112543 -0.0288071,0.0288071 -0.0686457,0.0466929 -0.112543,0.0466929l-0.567776 0c-0.0438976,0 -0.0837362,-0.0178858 -0.112543,-0.0466929 -0.0288071,-0.0288071 -0.0466929,-0.0686457 -0.0466929,-0.112543l0 -0.0650709 -2.11014 0 0 0.0650709c0,0.0438976 -0.0178858,0.0837362 -0.0466929,0.112543l-0.000208661 -0.000208661c-0.0290354,0.0289449 -0.068811,0.0469016 -0.112335,0.0469016l-0.567776 0c-0.0438976,0 -0.0837362,-0.0178858 -0.112543,-0.0466929 -0.0288071,-0.0288071 -0.0466929,-0.0686457 -0.0466929,-0.112543l0 -0.0650709z" fill="#a9a9a9"/>
   <path id="_558168944" class="fil0" d="M1.63126 0.951461l0.567772 0c0.0438976,0 0.0837362,0.0178858 0.112543,0.0466929 0.0288071,0.0288071 0.0466929,0.0686417 0.0466929,0.112547l0 0.343465c0,0.0436181 -0.0178858,0.083315 -0.0466929,0.112134l0 0.000417323c-0.0288071,0.0288071 -0.0686457,0.0466929 -0.112543,0.0466929l-0.567772 0c-0.0439055,0 -0.0837402,-0.0178858 -0.112547,-0.0466929l0 -0.000417323c-0.0288071,-0.0288189 -0.0466929,-0.0685157 -0.0466929,-0.112134l0 -0.343465c0,-0.0439055 0.0178858,-0.0837402 0.0466929,-0.112547 0.0288071,-0.0288071 0.0686417,-0.0466929 0.112547,-0.0466929zm0.513669 0.213339l-0.459571 0 0 0.235272 0.459571 0 0 -0.235272z" fill="#a9a9a9"/>
   <path id="_558168416" class="fil0" d="M4.62764 0.951461l0.567768 0c0.0439055,0 0.0837402,0.0178858 0.112547,0.0466929 0.0288071,0.0288071 0.0466929,0.0686417 0.0466929,0.112547l0 0.343465c0,0.0436181 -0.0178858,0.083315 -0.0466929,0.112134l0 0.000417323c-0.0288071,0.0288071 -0.0686417,0.0466929 -0.112547,0.0466929l-0.567768 0c-0.0439055,0 -0.0837402,-0.0178858 -0.112547,-0.0466929l0 -0.000417323c-0.0288071,-0.0288189 -0.0466929,-0.0685157 -0.0466929,-0.112134l0 -0.343465c0,-0.0439055 0.0178858,-0.0837402 0.0466929,-0.112547 0.0288071,-0.0288071 0.0686417,-0.0466929 0.112547,-0.0466929zm0.513669 0.213339l-0.459571 0 0 0.235272 0.459571 0 0 -0.235272z" fill="#a9a9a9"/>
   <polygon id="_558168992" class="fil0" points="0.959996,1.96082 5.86667,1.96082 5.86667,2.17416 0.959996,2.17416 " fill="#a9a9a9"/>
   <path id="_558168800" class="fil0" d="M1.50674 2.40944l0.672917 0 0.106669 0 0 0.106669 0 0.672913 0 0.106669 -0.106669 0 -0.672917 0 -0.106669 0 0 -0.106669 0 -0.672913 0 -0.106669 0.106669 0zm0.566248 0.213339l-0.459579 0 0 0.459575 0.459579 0 0 -0.459575z" fill="#a9a9a9"/>
   <path id="_558168032" class="fil0" d="M2.85257 2.40944l0.672913 0 0.106669 0 0 0.106669 0 0.672913 0 0.106669 -0.106669 0 -0.672913 0 -0.106669 0 0 -0.106669 0 -0.672913 0 -0.106669 0.106669 0zm0.566244 0.213339l-0.459575 0 0 0.459575 0.459575 0 0 -0.459575z" fill="#a9a9a9"/>
   <path id="_558167984" class="fil0" d="M1.50674 3.75527l0.672917 0 0.106669 0 0 0.106669 0 0.672913 0 0.106669 -0.106669 0 -0.672917 0 -0.106669 0 0 -0.106669 0 -0.672913 0 -0.106669 0.106669 0zm0.566248 0.213339l-0.459579 0 0 0.459575 0.459579 0 0 -0.459575z" fill="#a9a9a9"/>
   <path id="_558167696" class="fil0" d="M2.85257 3.75527l0.672913 0 0.106669 0 0 0.106669 0 0.672913 0 0.106669 -0.106669 0 -0.672913 0 -0.106669 0 0 -0.106669 0 -0.672913 0 -0.106669 0.106669 0zm0.566244 0.213339l-0.459575 0 0 0.459575 0.459575 0 0 -0.459575z" fill="#a9a9a9"/>
   <polygon id="_558167600" class="fil0" points="4.74652,2.70255 5.26795,2.91557 5.18795,3.11224 4.66652,2.89922 " fill="#a9a9a9"/>
   <polygon id="_558167960" class="fil0" points="4.02757,4.46239 4.54901,4.67542 4.46901,4.87209 3.94757,4.65906 " fill="#a9a9a9"/>
   <path id="_558167528" class="fil0" d="M4.58096 4.83922l-0.546717 0.601728 -0.169012 -0.0681378 0.0252795 -0.814748 0.00723228 -0.033878 0.855409 -2.09389c0.025685,-0.051374 0.0452756,-0.087315 0.0945906,-0.120689 0.0501417,-0.0339252 0.108571,-0.0438346 0.163173,-0.0215236m-0.943386 2.82693l0.358512 -0.394583 0.848543 -2.07711c0.00534252,-0.0130787 0.00747638,-0.0253504 0.00672047,-0.0352598l-0.328469 -0.134185c-0.00761811,0.00646457 -0.014748,0.0166142 -0.0200157,0.0295l-7.87402e-006 1.5748e-005 -0.848713 2.0775 -0.0165709 0.534114zm0.943394 -2.82693l0.358492 0.146449c0.11111,0.0453898 0.125354,0.182681 0.0848386,0.28187l-0.873295 2.12282" fill="#a9a9a9"/>
  </g>
 </g>
 <rect class="fil1" width="6.82666" height="6.82666" fill="#a9a9a9"/>
</svg>