<svg xmlns="http://www.w3.org/2000/svg" xmlns:xlink="http://www.w3.org/1999/xlink" xml:space="preserve" width="6.82666in" height="6.82666in" style="shape-rendering:geometricPrecision; text-rendering:geometricPrecision; image-rendering:optimizeQuality; fill-rule:evenodd; clip-rule:evenodd" viewBox="0 0 6.82666 6.82666" transform="matrix(1, 0, 0, 1, 0, 0)">
 <defs fill="#a9a9a9">
  <style type="text/css">
   <![CDATA[
    .fil2 {fill:none}
    .fil1 {fill:#a9a9a9}
    .fil0 {fill:#a9a9a9;fill-rule:nonzero}
   ]]>
  </style>
 </defs>
 <g id="Layer_x0020_1">
  <metadata id="CorelCorpID_0Corel-Layer" fill="#a9a9a9"/>
  <g id="_558166328">
   <path id="_558167216" class="fil0" d="M1.18424 0.96l4.45817 0c0.0542441,0 0.10348,0.022122 0.139114,0.0577559 0.0356339,0.0356339 0.0577559,0.0848858 0.0577559,0.139114l0 3.56909c0,0.0539685 -0.0221299,0.103075 -0.0577598,0.138713l-0.000397638 0.000397638c-0.0356378,0.0356299 -0.0847441,0.0577598 -0.138713,0.0577598l-1.16761 0c0.00631102,-0.0168189 0.0122126,-0.0337953 0.0177008,-0.0509016l0.161657 0c0.094626,0 0.174181,-0.0647362 0.196787,-0.152327l0.785106 0 0 -3.55637 -4.44545 0 0 3.55637 0.78511 0c0.0226063,0.0875906 0.102161,0.152327 0.196787,0.152327l0.161661 0c0.00548819,0.0171063 0.0113898,0.0340827 0.0176929,0.0509016l-1.16761 0c-0.0542283,0 -0.10348,-0.022122 -0.139114,-0.0577559 -0.0356339,-0.0356339 -0.0577559,-0.0848701 -0.0577559,-0.139114l0 -3.56909c0,-0.0537756 0.0221142,-0.102878 0.0577559,-0.138717l-3.93701e-006 -3.93701e-006 0.000200787 -0.00019685 0.00019685 -0.000200787 3.93701e-006 3.93701e-006c0.0358386,-0.0356417 0.0849409,-0.0577559 0.138717,-0.0577559z" fill="#a9a9a9"/>
   <polygon id="_558167384" class="fil0" points="1.13344,1.66621 5.69322,1.66621 5.69322,1.87955 1.13344,1.87955 " fill="#a9a9a9"/>
   <circle id="_558167192" class="fil1" cx="1.53664" cy="1.42036" r="0.149305" fill="#a9a9a9"/>
   <circle id="_558167312" class="fil1" cx="2.03848" cy="1.42036" r="0.149305" fill="#a9a9a9"/>
   <circle id="_558166088" class="fil1" cx="2.54031" cy="1.42036" r="0.149305" fill="#a9a9a9"/>
   <path id="_558166232" class="fil0" d="M3.65943 3.52192c0.051437,0.0125236 0.101122,0.0288189 0.148752,0.048563 0.0483071,0.0200197 0.0950118,0.0438386 0.139772,0.0710984l0.168768 -0.168768 -7.87402e-006 -7.87402e-006c0.0396772,-0.0396772 0.10402,-0.0396772 0.143701,0l0.000562992 0.00057874 0.20376 0.203764 7.87402e-006 -7.87402e-006c0.0396811,0.0396811 0.0396811,0.10402 0,0.143701l-0.000574803 0.000562992 -0.168197 0.168189c0.0272559,0.0447441 0.051063,0.091437 0.0710827,0.139732 0.0197402,0.0476417 0.0360394,0.0973465 0.0485748,0.148799l0.238531 0c0.0561142,0 0.10161,0.0454961 0.10161,0.101614l0 0.288969c0,0.0561142 -0.0454961,0.10161 -0.10161,0.10161l-0.238528 0c-0.0125276,0.051437 -0.0288228,0.101122 -0.048563,0.148756 -0.0200197,0.0483071 -0.0438386,0.0950118 -0.0711024,0.139768l0.168768 0.168768 7.87402e-006 -7.87402e-006c0.0396811,0.0396811 0.0396811,0.104024 0,0.143701l-0.000574803 0.000562992 -0.203764 0.203764 7.87402e-006 7.87402e-006c-0.0396811,0.0396772 -0.104024,0.0396772 -0.143701,0l-0.000562992 -0.00057874 -0.168193 -0.168193c-0.0447402,0.027252 -0.0914331,0.051063 -0.139732,0.0710827 -0.0476417,0.0197402 -0.0973425,0.0360394 -0.148795,0.0485748l0 0.238528c0,0.0561181 -0.0454961,0.101614 -0.101614,0.101614l-0.288969 0c-0.0561181,0 -0.101614,-0.0454961 -0.101614,-0.101614l0 -0.238524c-0.051437,-0.0125276 -0.101122,-0.0288228 -0.148752,-0.0485669 -0.0483071,-0.0200197 -0.0950118,-0.0438386 -0.139772,-0.0710984l-0.168768 0.168768 7.87402e-006 7.87402e-006c-0.0396772,0.0396772 -0.10402,0.0396772 -0.143701,0l-0.000562992 -0.00057874 -0.20376 -0.203764 -7.87402e-006 7.87402e-006c-0.0396811,-0.0396772 -0.0396811,-0.10402 0,-0.143701l0.000574803 -0.000562992 0.168197 -0.168189c-0.0272559,-0.0447402 -0.051063,-0.0914331 -0.0710827,-0.139732 -0.0197402,-0.0476417 -0.0360394,-0.0973465 -0.0485748,-0.148799l-0.238531 0c-0.0561142,0 -0.10161,-0.0454961 -0.10161,-0.10161l0 -0.288969c0,-0.0561181 0.0454961,-0.101614 0.10161,-0.101614l0.238528 0c0.0125276,-0.051437 0.0288228,-0.101122 0.048563,-0.148752 0.0200197,-0.048311 0.0438386,-0.0950157 0.0711024,-0.139772l-0.168768 -0.168768 -7.87402e-006 7.87402e-006c-0.0396811,-0.0396811 -0.0396811,-0.10402 0,-0.143701l0.000574803 -0.000562992 0.203764 -0.203764 -7.87402e-006 -7.87402e-006c0.0396811,-0.0396772 0.104024,-0.0396772 0.143701,0l0.000562992 0.00057874 0.168193 0.168193c0.0447402,-0.027252 0.0914331,-0.0510591 0.139732,-0.0710787 0.0476417,-0.0197441 0.0973425,-0.0360433 0.148795,-0.0485748l0 -0.238531c0,-0.0561181 0.0454961,-0.101614 0.101614,-0.101614l0.288969 0c0.0561181,0 0.101614,0.0454961 0.101614,0.101614l0 0.238528zm0.0709528 0.235909c-0.0575157,-0.0238386 -0.11774,-0.0413543 -0.179783,-0.051689 -0.052748,-0.00370472 -0.0943976,-0.0476654 -0.0943976,-0.101358l0 -0.219776 -0.0857402 0 0 0.218894c0.000492126,0.049622 -0.0354724,0.0934094 -0.0859567,0.101283l-0.0156575 -0.100402 0.0154803 0.100024c-0.0649764,0.0101339 -0.128012,0.0281417 -0.188094,0.0530394 -0.0588307,0.0243819 -0.113724,0.0548465 -0.163799,0.0905236 -0.0399094,0.0350787 -0.100752,0.0335748 -0.138858,-0.0045315l7.87402e-006 -7.87402e-006 -0.155484 -0.155488 -0.0606457 0.0606496 0.154311 0.154307c0.0359252,0.0346811 0.041685,0.0914291 0.0114173,0.132909l-0.000374016 -0.000271654c-0.0379764,0.052063 -0.0702756,0.109472 -0.0958661,0.171236 -0.0238425,0.0575157 -0.0413583,0.11774 -0.0516929,0.17978 -0.00370079,0.052752 -0.0476654,0.0943976 -0.101354,0.0943976l-0.21978 0 0 0.0857441 0.218894 0c0.049626,-0.000492126 0.0934094,0.0354724 0.101283,0.0859567l-0.100398 0.0156575 0.100024 -0.0154843c0.0101339,0.0649764 0.0281378,0.128012 0.0530354,0.188094 0.0243819,0.0588346 0.0548465,0.113728 0.0905236,0.163803 0.0350787,0.0399094 0.0335748,0.100752 -0.00452756,0.138854l-7.87402e-006 -7.87402e-006 -0.155488 0.155484 0.0606457 0.0606496 0.154307 -0.154311c0.034685,-0.0359252 0.0914331,-0.041685 0.132909,-0.0114213l-0.000271654 0.000377953c0.052063,0.0379764 0.109472,0.0702717 0.171236,0.0958661 0.0575157,0.0238425 0.11774,0.0413543 0.179783,0.0516929 0.052748,0.00370079 0.0943976,0.0476614 0.0943976,0.101354l0 0.219776 0.0857402 0 0 -0.21889c-0.000492126,-0.049626 0.0354724,-0.0934134 0.0859567,-0.101283l0.0156575 0.100398 -0.0154803 -0.100024c0.0649764,-0.0101339 0.128012,-0.0281378 0.188094,-0.0530394 0.0588307,-0.0243819 0.113724,-0.0548465 0.163799,-0.0905236 0.0399094,-0.0350748 0.100752,-0.0335709 0.138858,0.0045315l-7.87402e-006 7.87402e-006 0.155484 0.155488 0.0606457 -0.0606496 -0.154311 -0.154307c-0.0359252,-0.0346811 -0.041685,-0.0914291 -0.0114173,-0.132909l0.000374016 0.000275591c0.0379764,-0.052063 0.0702756,-0.109476 0.0958661,-0.171236 0.0238425,-0.0575157 0.0413583,-0.11774 0.0516929,-0.179783 0.00370079,-0.052752 0.0476654,-0.0943976 0.101354,-0.0943976l0.21978 0 0 -0.0857441 -0.218894 0c-0.049626,0.000492126 -0.0934094,-0.0354685 -0.101283,-0.0859528l0.100398 -0.0156575 -0.100024 0.0154803c-0.0101339,-0.0649764 -0.0281378,-0.128016 -0.0530354,-0.188094 -0.0243858,-0.0588346 -0.0548504,-0.113728 -0.0905236,-0.163803 -0.0350787,-0.0399055 -0.0335748,-0.100752 0.00452756,-0.138854l7.87402e-006 7.87402e-006 0.155488 -0.155484 -0.0606457 -0.0606496 -0.154307 0.154311c-0.034685,0.0359252 -0.0914331,0.041685 -0.132909,0.0114213l0.000271654 -0.000374016c-0.052063,-0.0379764 -0.109472,-0.0702756 -0.171236,-0.0958701z" fill="#a9a9a9"/>
   <path id="_558166352" class="fil0" d="M3.41333 3.9603c0.155709,0 0.296689,0.063122 0.39874,0.165177 0.102055,0.102051 0.165177,0.243035 0.165177,0.398744 0,0.155709 -0.063122,0.296689 -0.165177,0.39874 -0.102051,0.102055 -0.243031,0.165177 -0.39874,0.165177 -0.155709,0 -0.296689,-0.063122 -0.39874,-0.165177 -0.102055,-0.102051 -0.165177,-0.243031 -0.165177,-0.39874 0,-0.155709 0.063122,-0.296693 0.165177,-0.398744 0.102051,-0.102055 0.243031,-0.165177 0.39874,-0.165177zm0.247906 0.316012c-0.0634331,-0.063437 -0.151083,-0.102673 -0.247906,-0.102673 -0.0968228,0 -0.184472,0.0392362 -0.247906,0.102673 -0.0634331,0.0634291 -0.102673,0.151087 -0.102673,0.247909 0,0.0968228 0.0392362,0.184472 0.102673,0.247906 0.0634331,0.063437 0.151083,0.102673 0.247906,0.102673 0.0968228,0 0.184472,-0.0392362 0.247906,-0.102673 0.063437,-0.0634331 0.102673,-0.151083 0.102673,-0.247906 0,-0.0968228 -0.0392402,-0.18448 -0.102673,-0.247909z" fill="#a9a9a9"/>
  </g>
 </g>
 <rect class="fil2" width="6.82666" height="6.82666" fill="#a9a9a9"/>
</svg>