<svg xmlns="http://www.w3.org/2000/svg" xmlns:xlink="http://www.w3.org/1999/xlink" xml:space="preserve" width="6.82666in" height="6.82666in" style="shape-rendering:geometricPrecision; text-rendering:geometricPrecision; image-rendering:optimizeQuality; fill-rule:evenodd; clip-rule:evenodd" viewBox="0 0 6.82666 6.82666">
 <defs fill="#a9a9a9">
  <style type="text/css">
   <![CDATA[
    .fil2 {fill:none}
    .fil1 {fill:#a9a9a9}
    .fil0 {fill:#a9a9a9;fill-rule:nonzero}
   ]]>
  </style>
 </defs>
 <g id="Layer_x0020_1">
  <metadata id="CorelCorpID_0Corel-Layer" fill="#a9a9a9"/>
  <g id="_558164264">
   <path id="_558165008" class="fil0" d="M1.06054 0.839909l4.70558 0c0.0570866,0 0.108917,0.0232874 0.146421,0.0607913 0.0375039,0.0375039 0.0607913,0.0893465 0.0607913,0.146421l0 3.76716c0,0.0568031 -0.0232953,0.108492 -0.0607953,0.146l-0.000417323 0.000417323c-0.0375079,0.0375 -0.0891969,0.0607953 -0.146,0.0607953l-1.47041 0 -0.0612913 0 -0.0307913 -0.0533346 -0.790291 -1.36882 -0.790291 1.36882 -0.0307913 0.0533346 -0.0612913 0 -1.47042 0c-0.0567913,0 -0.1085,-0.0232913 -0.146008,-0.0607913l-0.000417323 -0.000417323c-0.0374961,-0.0375039 -0.0607874,-0.0891969 -0.0607874,-0.146004l0 -3.76716c0,-0.0566024 0.0232756,-0.108283 0.0607913,-0.146004l-3.93701e-006 -3.93701e-006 0.000208661 -0.000208661 0.000208661 -0.000208661 3.93701e-006 3.93701e-006c0.0377205,-0.0375157 0.0894016,-0.0607913 0.146004,-0.0607913zm4.69945 0.213339l-4.69333 0 0 3.75491 1.403 0 0.851583 -1.47498 0.0920827 -0.159488 0.0920827 0.159488 0.851583 1.47498 1.403 0 0 -3.75491z" fill="#a9a9a9"/>
   <polygon id="_558164744" class="fil0" points="1.00692,1.59065 5.81974,1.59065 5.81974,1.80399 1.00692,1.80399 " fill="#a9a9a9"/>
   <circle id="_558164408" class="fil1" cx="1.43249" cy="1.32524" r="0.157591" fill="#a9a9a9"/>
   <circle id="_558164864" class="fil1" cx="1.96218" cy="1.32524" r="0.157591" fill="#a9a9a9"/>
   <circle id="_558164120" class="fil1" cx="2.49186" cy="1.32524" r="0.157591" fill="#a9a9a9"/>
   <path id="_558164384" class="fil0" d="M3.50924 3.33982l1.43583 2.48693 -0.0920827 0.0533346 0.092378 -0.0533346c0.0294528,0.0510157 0.0119724,0.11626 -0.0390433,0.145713 -0.0171969,0.0099252 -0.0360079,0.0145157 -0.0545197,0.0142913l-2.87814 0c-0.0589094,0 -0.106669,-0.0477598 -0.106669,-0.106669 0,-0.022126 0.00673622,-0.0426772 0.0182717,-0.0597165l1.4359 -2.48706 -0.000220472 -0.000125984c0.0294528,-0.0510157 0.0946969,-0.0684961 0.145713,-0.0390433 0.0191614,0.011063 0.0335906,0.0271732 0.0425787,0.0456811zm1.15929 2.43359l-1.2552 -2.17407 -1.2552 2.17407 2.5104 0z" fill="#a9a9a9"/>
   <path id="_558164360" class="fil0" d="M3.52 4.16408c0,-0.0589094 -0.0477598,-0.106669 -0.106669,-0.106669 -0.0589094,0 -0.106669,0.0477598 -0.106669,0.106669l0 0.997118c0,0.0589094 0.0477598,0.106669 0.106669,0.106669 0.0589094,0 0.106669,-0.0477598 0.106669,-0.106669l0 -0.997118z" fill="#a9a9a9"/>
   <circle id="_558163952" class="fil1" cx="3.41333" cy="5.45108" r="0.107249" fill="#a9a9a9"/>
  </g>
 </g>
 <rect class="fil2" width="6.82666" height="6.82666" fill="#a9a9a9"/>
</svg>